<svg width="62" height="46" viewBox="0 0 62 46" fill="none" xmlns="http://www.w3.org/2000/svg">
<path fill-rule="evenodd" clip-rule="evenodd" d="M26.8065 2.60798C26.7225 2.55961 26.65 2.49357 26.594 2.41442C26.5381 2.33527 26.5 2.2449 26.4825 2.14958C26.4531 1.97736 26.4911 1.80044 26.5887 1.65552C26.6862 1.51059 26.8358 1.40877 27.0065 1.37118C27.0065 1.37118 27.1761 1.32158 27.2609 1.30238C27.5841 1.22798 27.9105 1.16158 28.2409 1.10238C38.9729 -0.788821 49.2065 6.37678 51.0993 17.1088C51.2753 18.112 51.3737 19.112 51.3969 20.1C50.9437 19.9736 50.4841 19.8713 50.0201 19.7936C49.9877 18.9724 49.9005 18.1543 49.7593 17.3448C48.0201 7.47998 38.7097 0.851979 28.8577 2.37998C32.2446 4.95385 34.6685 8.59117 35.7401 12.708C35.24 12.5536 34.7328 12.4239 34.2201 12.3192C32.9839 8.30288 30.3551 4.85876 26.8065 2.60798Z" fill="#FFC000"/>
<path fill-rule="evenodd" clip-rule="evenodd" d="M49.704 18.9336C56.2264 19.8544 61.2496 25.5032 61.3968 32.0888C61.568 39.7424 55.4152 46 47.8 46H12.6C5.53443 46 -0.105565 39.892 0.672035 32.668C1.25524 27.24 5.57844 22.8168 10.9912 22.1056C13.924 21.7079 16.8999 22.4139 19.3416 24.0864C19.3877 24.119 19.4264 24.1609 19.4553 24.2093C19.4842 24.2577 19.5026 24.3117 19.5094 24.3677C19.5162 24.4237 19.5112 24.4805 19.4947 24.5344C19.4782 24.5883 19.4506 24.6382 19.4136 24.6808L18.888 25.2936C18.8243 25.367 18.7358 25.4143 18.6394 25.4264C18.543 25.4385 18.4455 25.4146 18.3656 25.3592C16.6617 24.212 14.6542 23.5995 12.6 23.6C6.69123 23.6 1.91844 28.552 2.21364 34.5248C2.48804 40.1104 7.30884 44.4 12.9016 44.4H47.452C53.9056 44.4 59.4672 39.4496 59.7856 33.0032C60.1248 26.1136 54.6176 20.4 47.8 20.4C47.1192 20.4 46.4552 20.4696 45.8048 20.58C45.3664 20.6544 44.9344 20.7432 44.5128 20.86C44.426 20.8851 44.3333 20.8795 44.2501 20.8443C44.1669 20.809 44.0984 20.7462 44.056 20.6664C43.8528 20.2816 43.6344 19.9064 43.3976 19.5432C40.7544 15.4888 36.1888 12.8 31 12.8C26.0464 12.8 21.656 15.2488 18.9696 18.9968C18.9195 19.0682 18.8466 19.1205 18.7629 19.1452C18.6793 19.1699 18.5897 19.1655 18.5088 19.1328C18.2586 19.0343 18.006 18.9417 17.7512 18.8552C17.6919 18.8363 17.6378 18.8038 17.5932 18.7603C17.5486 18.7168 17.5147 18.6636 17.4942 18.6048C17.4737 18.546 17.4672 18.4832 17.4751 18.4214C17.4831 18.3596 17.5053 18.3005 17.54 18.2488C20.5016 13.9928 25.4216 11.2008 31 11.2008C36.9376 11.2008 42.1216 14.3656 45 19.0912C46.5469 18.7654 48.1388 18.712 49.704 18.9336Z" fill="#315EFB"/>
</svg>
