<svg width="220" height="35" viewBox="0 0 220 35" fill="none" xmlns="http://www.w3.org/2000/svg">
<g clip-path="url(#clip0)">
<path d="M143.6 0.800024H125.6C125.4 0.800024 125.3 0.900024 125.3 1.10002C124.8 9.20002 123.3 18 121.1 25.1V25.4C121.2 25.5 121.3 25.5 121.4 25.5H127.6C127.7 25.5 127.9 25.4 127.9 25.3C129.6 19.8 131 12.6 131.5 6.50002H137.4V25.2C137.4 25.4 137.5 25.5 137.7 25.5H143.6C143.8 25.5 143.9 25.4 143.9 25.2V1.20002C143.9 1.00002 143.8 0.800024 143.6 0.800024ZM219.7 0.800024H213.8C213.6 0.800024 213.5 0.900024 213.5 1.10002V19.7C212.2 20.1 210.9 20.2 209.5 20.2C205.6 20.2 204.7 19 204.7 13.8V1.20002C204.7 1.00002 204.6 0.900024 204.4 0.900024H198.5C198.3 0.900024 198.2 1.00002 198.2 1.20002V14.6C198.2 23 201 26.3 208.3 26.3C212.4 26.3 217.1 25.2 219.8 24.2C219.9 24.2 220 24 220 23.9V1.20002C220 1.00002 219.9 0.800024 219.7 0.800024ZM95.2 0.900024H89.2C89 0.900024 88.9 1.00002 88.9 1.10002C88 4.80002 86.1 11 83.5 17.5L77.5 1.00002C77.5 0.900024 77.3 0.800024 77.2 0.800024H71.2C71.1 0.800024 71 0.900024 70.9 0.900024C70.8 1.00002 70.8 1.10002 70.9 1.20002L79.9 25.8C79 27.7 78.1 29.3 77.3 30.8C76.7 31.9 76.1 33 75.5 34.2C75.4 34.3 75.5 34.4 75.5 34.5C75.6 34.6 75.7 34.7 75.8 34.7H82.3C82.4 34.7 82.5 34.6 82.6 34.5C83.7 32.4 85.1 29.4 86.4 26.4C90.2 17.4 93.3 9.00002 95.6 1.30002C95.6 1.20002 95.6 1.10002 95.5 1.00002C95.4 0.900024 95.3 0.900024 95.2 0.900024ZM116.6 19.8C116.6 19.7 116.5 19.6 116.4 19.6H116.1C114.7 20.1 112 20.6 110.1 20.6C106 20.6 104.1 19.5 104.1 13.2C104.1 8.20002 104.7 5.80002 110.1 5.80002C111.6 5.80002 113.1 6.00002 114.9 6.60002C115.1 6.60002 115.2 6.60002 115.3 6.40002C116 5.10002 116.8 3.60002 117.7 1.60002V1.30002C117.7 1.20002 117.6 1.10002 117.5 1.10002C115.1 0.300024 112.2 -0.0999756 109.7 -0.0999756C101.1 -0.0999756 97.3 3.90002 97.3 13C97.3 22.2 101.1 26.3 109.7 26.3C111.8 26.3 116.1 25.8 118.1 25C118.3 24.9 118.3 24.8 118.3 24.6L116.6 19.8ZM172.5 0.900024H166.5C166.4 0.900024 166.2 1.00002 166.2 1.10002C165.3 4.80002 163.4 11 160.8 17.5L154.8 1.00002C154.8 0.900024 154.6 0.800024 154.5 0.800024H148.5C148.4 0.800024 148.3 0.900024 148.2 0.900024C148.1 1.00002 148.1 1.10002 148.2 1.20002L157.2 25.8C156.3 27.7 155.4 29.2 154.6 30.8C154 31.9 153.4 33 152.8 34.2C152.7 34.3 152.8 34.4 152.8 34.5C152.9 34.6 153 34.7 153.1 34.7H159.6C159.7 34.7 159.8 34.6 159.9 34.5C161 32.4 162.4 29.4 163.7 26.4C167.5 17.4 170.6 9.00002 172.8 1.30002C172.8 1.20002 172.8 1.10002 172.7 1.00002C172.7 0.900024 172.6 0.900024 172.5 0.900024ZM194.5 0.800024H177.1C176.9 0.800024 176.8 0.900024 176.8 1.10002V25.2C176.8 25.4 176.9 25.5 177.1 25.5H183C183.2 25.5 183.3 25.4 183.3 25.2V6.60002H192.4C192.5 6.60002 192.7 6.50002 192.7 6.40002C193.4 4.80002 194.1 3.00002 194.8 1.30002V1.00002C194.7 0.900024 194.6 0.800024 194.5 0.800024Z" fill="#EE3F58"/>
<path d="M31.3 20.8C27.4 20.8 26.2 19.7 26.2 13.2C26.2 6.2 27.5 5.6 31.3 5.6C35.1 5.6 36.5 6.2 36.5 13.2C36.5 19.8 35.2 20.8 31.3 20.8ZM31.3 0.1C22.8 0.1 19.5 3.7 19.5 13.1C19.5 22.6 22.8 26.3 31.3 26.3C39.8 26.3 43.2 22.6 43.2 13.1C43.2 3.8 39.8 0.1 31.3 0.1ZM66.6 19.8C66.6 19.7 66.5 19.6 66.4 19.6H66.1C64.7 20.1 62 20.6 60.1 20.6C56 20.6 54.1 19.5 54.1 13.2C54.1 8.2 54.7 5.8 60.1 5.8C61.6 5.8 63.1 6 64.9 6.6C65 6.6 65.2 6.6 65.3 6.4C66 5.1 66.8 3.6 67.7 1.6V1.3C67.7 1.2 67.6 1.1 67.5 1.1C65.2 0.4 62.3 0 59.8 0C51.2 0 47.4 4 47.4 13.1C47.4 22.3 51.2 26.4 59.8 26.4C61.9 26.4 66.2 25.9 68.2 25.1C68.4 25 68.4 24.9 68.4 24.7L66.6 19.8ZM17.7 0.8H0.3C0.1 0.8 0 1 0 1.2V25.3C0 25.5 0.1 25.6 0.3 25.6H6.2C6.4 25.6 6.5 25.5 6.5 25.3V6.6H15.6C15.7 6.6 15.8 6.5 15.9 6.4C16.6 4.8 17.3 3 18 1.3V1C17.9 0.9 17.8 0.8 17.7 0.8Z" fill="#0065B1"/>
</g>
<defs>
<clipPath id="clip0">
<rect width="220" height="34.7" fill="white"/>
</clipPath>
</defs>
</svg>
