<svg id="heart" width="24" height="21" viewBox="0 0 24 21" fill="none" xmlns="http://www.w3.org/2000/svg">
<path d="M21.8992 1.75744C19.556 -0.585813 15.7572 -0.585813 13.4142 1.75744L11.9997 3.17169L10.5855 1.75769C8.24221 -0.585563 4.44321 -0.585563 2.10021 1.75769C-0.243039 4.10094 -0.243039 7.89969 2.10021 10.2429L3.51446 11.6564L11.9997 20.1417L20.485 11.6564L21.899 10.2429C24.2425 7.89969 24.2425 4.10069 21.8992 1.75744ZM17.6565 11.6569L11.9997 17.3137L6.34321 11.6569L3.51496 8.82869C1.95271 7.26669 1.95271 4.73394 3.51496 3.17144C5.07721 1.60944 7.60971 1.60944 9.17171 3.17144L11.9997 6.00019L14.8282 3.17169C16.3902 1.60969 18.923 1.60969 20.485 3.17169C22.047 4.73419 22.047 7.26644 20.485 8.82894L17.6565 11.6569Z" fill="#3D4C99"/>
</svg>
