<svg width="16" height="16" viewBox="0 0 16 16" fill="none" xmlns="http://www.w3.org/2000/svg">
<path d="M12 5C12.5523 5 13 4.55228 13 4C13 3.44771 12.5523 3 12 3C11.4477 3 11 3.44771 11 4C11 4.55228 11.4477 5 12 5Z" fill="#293D66"/>
<path fill-rule="evenodd" clip-rule="evenodd" d="M8 4C5.8125 4 4 5.78125 4 8C4 10.2188 5.78125 12 8 12C10.2188 12 12 10.1875 12 8C12 5.8125 10.1875 4 8 4ZM8 10.5625C6.59375 10.5625 5.4375 9.40625 5.4375 8C5.4375 6.59375 6.59375 5.4375 8 5.4375C9.40625 5.4375 10.5625 6.59375 10.5625 8C10.5625 9.40625 9.40625 10.5625 8 10.5625Z" fill="#293D66"/>
<path fill-rule="evenodd" clip-rule="evenodd" d="M11.3226 0C12.6774 0 13.871 0.451612 14.7097 1.32258C15.5484 2.16129 16 3.32258 16 4.67742V11.3226C16 12.7097 15.5484 13.9032 14.6774 14.7419C13.8387 15.5484 12.6774 16 11.2903 16H4.70967C3.3871 16 2.2258 15.5806 1.35484 14.7419C0.451614 13.871 0 12.6774 0 11.2903V4.67742C0 1.87097 1.87097 0 4.67741 0H11.3226ZM13.6452 13.6774C14.2258 13.129 14.5806 12.3226 14.5806 11.3226V4.67742C14.5806 3.74193 14.2581 2.93548 13.7097 2.35484C13.129 1.77419 12.3226 1.48387 11.3548 1.48387H4.70967C3.74194 1.48387 2.90323 1.77419 2.35484 2.32258C1.7742 2.90323 1.48387 3.70968 1.48387 4.67742V11.2903C1.48387 12.2903 1.7742 13.0968 2.35484 13.6774C2.93549 14.2258 3.74194 14.5161 4.70967 14.5161H11.2903C12.2581 14.5161 13.0645 14.2258 13.6452 13.6774Z" fill="#293D66"/>
</svg>
