<svg width="266" height="78" viewBox="0 0 266 78" fill="none" xmlns="http://www.w3.org/2000/svg">
<path fill-rule="evenodd" clip-rule="evenodd" d="M121.585 63.7357C121.369 63.503 121.102 63.3139 120.782 63.1685C120.468 63.023 120.104 62.9299 119.691 62.8892V62.0951H118.731V62.8892C118.306 62.9299 117.931 63.023 117.605 63.1685C117.279 63.3139 117.006 63.503 116.785 63.7357C116.564 63.9684 116.395 64.2419 116.279 64.556C116.168 64.8702 116.113 65.2193 116.113 65.6032C116.113 66.377 116.337 66.9995 116.785 67.4707C117.233 67.9362 117.881 68.2096 118.731 68.2911V69.094H119.691V68.2824C120.517 68.2067 121.148 67.9362 121.585 67.4707C122.021 66.9995 122.239 66.377 122.239 65.6032C122.239 65.2193 122.184 64.8702 122.073 64.556C121.963 64.2419 121.8 63.9684 121.585 63.7357ZM118.731 67.3922C117.637 67.2584 117.09 66.6534 117.09 65.577C117.09 64.5124 117.637 63.919 118.731 63.7967V67.3922ZM119.691 67.3922V63.7967C120.738 63.919 121.262 64.5124 121.262 65.577C121.262 66.6475 120.738 67.2526 119.691 67.3922Z" fill="#939DB2"/>
<path fill-rule="evenodd" clip-rule="evenodd" d="M121.585 63.7357C121.369 63.503 121.102 63.3139 120.782 63.1685C120.468 63.023 120.104 62.9299 119.691 62.8892V62.0951H118.731V62.8892C118.306 62.9299 117.931 63.023 117.605 63.1685C117.279 63.3139 117.006 63.503 116.785 63.7357C116.564 63.9684 116.395 64.2419 116.279 64.556C116.168 64.8702 116.113 65.2193 116.113 65.6032C116.113 66.377 116.337 66.9995 116.785 67.4707C117.233 67.9362 117.881 68.2096 118.731 68.2911V69.094H119.691V68.2824C120.517 68.2067 121.148 67.9362 121.585 67.4707C122.021 66.9995 122.239 66.377 122.239 65.6032C122.239 65.2193 122.184 64.8702 122.073 64.556C121.963 64.2419 121.8 63.9684 121.585 63.7357ZM118.731 67.3922C117.637 67.2584 117.09 66.6534 117.09 65.577C117.09 64.5124 117.637 63.919 118.731 63.7967V67.3922ZM119.691 67.3922V63.7967C120.738 63.919 121.262 64.5124 121.262 65.577C121.262 66.6475 120.738 67.2526 119.691 67.3922Z" fill="#596680"/>
<path fill-rule="evenodd" clip-rule="evenodd" d="M263.97 63.5179C264.232 63.8147 264.433 64.1521 264.572 64.5303C264.718 64.9026 264.791 65.2837 264.791 65.6735C264.791 66.0866 264.715 66.4822 264.564 66.8603C264.418 67.2385 264.212 67.573 263.944 67.864C263.676 68.149 263.359 68.3788 262.993 68.5534C262.632 68.722 262.239 68.8064 261.815 68.8064C261.373 68.8064 260.968 68.7191 260.602 68.5446C260.241 68.3643 259.93 68.1286 259.668 67.8377C259.406 67.5411 259.202 67.2036 259.057 66.8254C258.917 66.4472 258.848 66.0604 258.848 65.6648C258.848 65.2517 258.923 64.8561 259.075 64.4779C259.226 64.0998 259.432 63.7652 259.694 63.4743C259.962 63.1834 260.276 62.9536 260.637 62.7849C261.003 62.6104 261.402 62.5231 261.832 62.5231C262.274 62.5231 262.676 62.6162 263.037 62.8024C263.403 62.9827 263.714 63.2213 263.97 63.5179ZM263.272 67.2094C263.441 66.9942 263.569 66.7527 263.656 66.4851C263.743 66.2174 263.787 65.944 263.787 65.6648C263.787 65.368 263.74 65.0859 263.647 64.8182C263.554 64.5448 263.421 64.3063 263.246 64.1027C263.077 63.8932 262.871 63.7274 262.626 63.6052C262.388 63.4772 262.12 63.4132 261.823 63.4132C261.509 63.4132 261.23 63.4801 260.986 63.6139C260.741 63.7419 260.535 63.9107 260.366 64.1201C260.197 64.3296 260.066 64.571 259.973 64.8445C259.886 65.1121 259.842 65.3855 259.842 65.6648C259.842 65.9557 259.889 66.2379 259.982 66.5113C260.075 66.7847 260.206 67.0262 260.375 67.2356C260.549 67.4451 260.759 67.6137 261.003 67.7417C261.247 67.864 261.521 67.925 261.823 67.925C262.138 67.925 262.414 67.861 262.653 67.733C262.897 67.5992 263.103 67.4247 263.272 67.2094Z" fill="#939DB2"/>
<path fill-rule="evenodd" clip-rule="evenodd" d="M263.97 63.5179C264.232 63.8147 264.433 64.1521 264.572 64.5303C264.718 64.9026 264.791 65.2837 264.791 65.6735C264.791 66.0866 264.715 66.4822 264.564 66.8603C264.418 67.2385 264.212 67.573 263.944 67.864C263.676 68.149 263.359 68.3788 262.993 68.5534C262.632 68.722 262.239 68.8064 261.815 68.8064C261.373 68.8064 260.968 68.7191 260.602 68.5446C260.241 68.3643 259.93 68.1286 259.668 67.8377C259.406 67.5411 259.202 67.2036 259.057 66.8254C258.917 66.4472 258.848 66.0604 258.848 65.6648C258.848 65.2517 258.923 64.8561 259.075 64.4779C259.226 64.0998 259.432 63.7652 259.694 63.4743C259.962 63.1834 260.276 62.9536 260.637 62.7849C261.003 62.6104 261.402 62.5231 261.832 62.5231C262.274 62.5231 262.676 62.6162 263.037 62.8024C263.403 62.9827 263.714 63.2213 263.97 63.5179ZM263.272 67.2094C263.441 66.9942 263.569 66.7527 263.656 66.4851C263.743 66.2174 263.787 65.944 263.787 65.6648C263.787 65.368 263.74 65.0859 263.647 64.8182C263.554 64.5448 263.421 64.3063 263.246 64.1027C263.077 63.8932 262.871 63.7274 262.626 63.6052C262.388 63.4772 262.12 63.4132 261.823 63.4132C261.509 63.4132 261.23 63.4801 260.986 63.6139C260.741 63.7419 260.535 63.9107 260.366 64.1201C260.197 64.3296 260.066 64.571 259.973 64.8445C259.886 65.1121 259.842 65.3855 259.842 65.6648C259.842 65.9557 259.889 66.2379 259.982 66.5113C260.075 66.7847 260.206 67.0262 260.375 67.2356C260.549 67.4451 260.759 67.6137 261.003 67.7417C261.247 67.864 261.521 67.925 261.823 67.925C262.138 67.925 262.414 67.861 262.653 67.733C262.897 67.5992 263.103 67.4247 263.272 67.2094Z" fill="#596680"/>
<path d="M243.359 67.3752C243.237 67.5032 243.1 67.6108 242.949 67.6981C242.804 67.7796 242.65 67.8406 242.487 67.8814C242.33 67.9163 242.175 67.9337 242.024 67.9337C241.733 67.9337 241.466 67.8727 241.221 67.7505C240.977 67.6225 240.765 67.4538 240.584 67.2443C240.41 67.0349 240.273 66.7935 240.174 66.52C240.075 66.2466 240.026 65.9586 240.026 65.656C240.026 65.3884 240.066 65.1208 240.148 64.8532C240.235 64.5855 240.36 64.3441 240.523 64.1288C240.692 63.9136 240.898 63.7419 241.143 63.6139C241.387 63.4801 241.672 63.4132 241.998 63.4132C242.143 63.4132 242.295 63.4307 242.452 63.4656C242.609 63.4947 242.76 63.5471 242.905 63.6227C243.051 63.6983 243.185 63.8001 243.307 63.9281C243.429 64.0561 243.534 64.2132 243.621 64.3993L244.389 63.8845C244.185 63.4831 243.883 63.1573 243.482 62.9071C243.08 62.6569 242.597 62.5318 242.033 62.5318C241.562 62.5318 241.14 62.622 240.767 62.8024C240.395 62.9827 240.078 63.2213 239.816 63.5179C239.56 63.8089 239.365 64.1405 239.231 64.5128C239.098 64.8794 239.031 65.2488 239.031 65.6211C239.031 66.0167 239.104 66.4065 239.249 66.7905C239.394 67.1687 239.598 67.509 239.86 67.8116C240.122 68.1083 240.433 68.3497 240.794 68.5359C241.154 68.722 241.553 68.8151 241.989 68.8151C242.234 68.8151 242.481 68.7832 242.731 68.7191C242.987 68.6552 243.228 68.5621 243.455 68.4399C243.682 68.3177 243.886 68.1693 244.066 67.9948C244.246 67.8145 244.386 67.6079 244.485 67.3752L243.674 66.9127C243.592 67.093 243.487 67.2472 243.359 67.3752Z" fill="#939DB2"/>
<path d="M243.359 67.3752C243.237 67.5032 243.1 67.6108 242.949 67.6981C242.804 67.7796 242.65 67.8406 242.487 67.8814C242.33 67.9163 242.175 67.9337 242.024 67.9337C241.733 67.9337 241.466 67.8727 241.221 67.7505C240.977 67.6225 240.765 67.4538 240.584 67.2443C240.41 67.0349 240.273 66.7935 240.174 66.52C240.075 66.2466 240.026 65.9586 240.026 65.656C240.026 65.3884 240.066 65.1208 240.148 64.8532C240.235 64.5855 240.36 64.3441 240.523 64.1288C240.692 63.9136 240.898 63.7419 241.143 63.6139C241.387 63.4801 241.672 63.4132 241.998 63.4132C242.143 63.4132 242.295 63.4307 242.452 63.4656C242.609 63.4947 242.76 63.5471 242.905 63.6227C243.051 63.6983 243.185 63.8001 243.307 63.9281C243.429 64.0561 243.534 64.2132 243.621 64.3993L244.389 63.8845C244.185 63.4831 243.883 63.1573 243.482 62.9071C243.08 62.6569 242.597 62.5318 242.033 62.5318C241.562 62.5318 241.14 62.622 240.767 62.8024C240.395 62.9827 240.078 63.2213 239.816 63.5179C239.56 63.8089 239.365 64.1405 239.231 64.5128C239.098 64.8794 239.031 65.2488 239.031 65.6211C239.031 66.0167 239.104 66.4065 239.249 66.7905C239.394 67.1687 239.598 67.509 239.86 67.8116C240.122 68.1083 240.433 68.3497 240.794 68.5359C241.154 68.722 241.553 68.8151 241.989 68.8151C242.234 68.8151 242.481 68.7832 242.731 68.7191C242.987 68.6552 243.228 68.5621 243.455 68.4399C243.682 68.3177 243.886 68.1693 244.066 67.9948C244.246 67.8145 244.386 67.6079 244.485 67.3752L243.674 66.9127C243.592 67.093 243.487 67.2472 243.359 67.3752Z" fill="#596680"/>
<path fill-rule="evenodd" clip-rule="evenodd" d="M209.578 62.5666L207.118 68.7626H208.156L208.802 67.0784H211.193L211.847 68.7626H212.877L210.434 62.5666H209.578ZM208.976 66.3541L210.006 63.6924L211.001 66.3541H208.976Z" fill="#939DB2"/>
<path fill-rule="evenodd" clip-rule="evenodd" d="M209.578 62.5666L207.118 68.7626H208.156L208.802 67.0784H211.193L211.847 68.7626H212.877L210.434 62.5666H209.578ZM208.976 66.3541L210.006 63.6924L211.001 66.3541H208.976Z" fill="#596680"/>
<path d="M214.533 68.7626H215.52V63.4306H218.208V62.5666H214.533V68.7626Z" fill="#939DB2"/>
<path d="M214.533 68.7626H215.52V63.4306H218.208V62.5666H214.533V68.7626Z" fill="#596680"/>
<path d="M223.668 66.005H220.901V67.8987H224.174V68.7626H219.924V62.5666H224.095V63.4306H220.901V65.1934H223.668V66.005Z" fill="#939DB2"/>
<path d="M223.668 66.005H220.901V67.8987H224.174V68.7626H219.924V62.5666H224.095V63.4306H220.901V65.1934H223.668V66.005Z" fill="#596680"/>
<path d="M230.182 65.1585H227.058V62.5666H226.08V68.7626H227.058V66.0312H230.182V68.7626H231.168V62.5666H230.182V65.1585Z" fill="#939DB2"/>
<path d="M230.182 65.1585H227.058V62.5666H226.08V68.7626H227.058V66.0312H230.182V68.7626H231.168V62.5666H230.182V65.1585Z" fill="#596680"/>
<path d="M234.964 63.4306H232.896V62.5666H238.01V63.4306H235.95V68.7626H234.964V63.4306Z" fill="#939DB2"/>
<path d="M234.964 63.4306H232.896V62.5666H238.01V63.4306H235.95V68.7626H234.964V63.4306Z" fill="#596680"/>
<path d="M247.695 63.4306H245.627V62.5666H250.741V63.4306H248.681V68.7626H247.695V63.4306Z" fill="#939DB2"/>
<path d="M247.695 63.4306H245.627V62.5666H250.741V63.4306H248.681V68.7626H247.695V63.4306Z" fill="#596680"/>
<path fill-rule="evenodd" clip-rule="evenodd" d="M256.049 65.5861C256.334 65.4581 256.552 65.2632 256.703 65.0014C256.86 64.7338 256.939 64.4487 256.939 64.1462C256.939 63.9542 256.904 63.7651 256.834 63.579C256.77 63.387 256.677 63.2182 256.555 63.0728C256.433 62.9215 256.284 62.7993 256.11 62.7062C255.935 62.6131 255.74 62.5666 255.525 62.5666H252.331V68.7626H255.289C255.551 68.7626 255.798 68.7278 256.031 68.658C256.264 68.5823 256.465 68.4776 256.633 68.3438C256.808 68.2041 256.945 68.0354 257.043 67.8376C257.148 67.6398 257.2 67.4158 257.2 67.1657C257.2 66.77 257.096 66.4355 256.886 66.1621C256.683 65.8828 256.403 65.6908 256.049 65.5861ZM253.308 63.4131H255.158C255.391 63.4131 255.583 63.5004 255.734 63.6749C255.886 63.8436 255.961 64.0618 255.961 64.3294C255.961 64.4633 255.938 64.5854 255.891 64.696C255.851 64.8065 255.79 64.9025 255.708 64.9839C255.633 65.0596 255.542 65.1207 255.438 65.1672C255.339 65.2138 255.228 65.237 255.106 65.237H253.308V63.4131ZM256.127 67.349C256.081 67.4594 256.016 67.5584 255.935 67.6456C255.854 67.7271 255.758 67.794 255.647 67.8464C255.537 67.8929 255.417 67.9162 255.289 67.9162H253.308V66.0224H255.35C255.473 66.0224 255.586 66.0486 255.691 66.101C255.795 66.1533 255.883 66.2232 255.953 66.3104C256.028 66.3977 256.086 66.4995 256.127 66.6159C256.174 66.7322 256.197 66.8544 256.197 66.9824C256.197 67.1104 256.174 67.2326 256.127 67.349Z" fill="#939DB2"/>
<path fill-rule="evenodd" clip-rule="evenodd" d="M256.049 65.5861C256.334 65.4581 256.552 65.2632 256.703 65.0014C256.86 64.7338 256.939 64.4487 256.939 64.1462C256.939 63.9542 256.904 63.7651 256.834 63.579C256.77 63.387 256.677 63.2182 256.555 63.0728C256.433 62.9215 256.284 62.7993 256.11 62.7062C255.935 62.6131 255.74 62.5666 255.525 62.5666H252.331V68.7626H255.289C255.551 68.7626 255.798 68.7278 256.031 68.658C256.264 68.5823 256.465 68.4776 256.633 68.3438C256.808 68.2041 256.945 68.0354 257.043 67.8376C257.148 67.6398 257.2 67.4158 257.2 67.1657C257.2 66.77 257.096 66.4355 256.886 66.1621C256.683 65.8828 256.403 65.6908 256.049 65.5861ZM253.308 63.4131H255.158C255.391 63.4131 255.583 63.5004 255.734 63.6749C255.886 63.8436 255.961 64.0618 255.961 64.3294C255.961 64.4633 255.938 64.5854 255.891 64.696C255.851 64.8065 255.79 64.9025 255.708 64.9839C255.633 65.0596 255.542 65.1207 255.438 65.1672C255.339 65.2138 255.228 65.237 255.106 65.237H253.308V63.4131ZM256.127 67.349C256.081 67.4594 256.016 67.5584 255.935 67.6456C255.854 67.7271 255.758 67.794 255.647 67.8464C255.537 67.8929 255.417 67.9162 255.289 67.9162H253.308V66.0224H255.35C255.473 66.0224 255.586 66.0486 255.691 66.101C255.795 66.1533 255.883 66.2232 255.953 66.3104C256.028 66.3977 256.086 66.4995 256.127 66.6159C256.174 66.7322 256.197 66.8544 256.197 66.9824C256.197 67.1104 256.174 67.2326 256.127 67.349Z" fill="#596680"/>
<path d="M102.709 67.2526V62.5663H101.723V68.7623H102.552L105.877 64.1633V68.7623H106.863V62.5663H106.086L102.709 67.2526Z" fill="#939DB2"/>
<path d="M102.709 67.2526V62.5663H101.723V68.7623H102.552L105.877 64.1633V68.7623H106.863V62.5663H106.086L102.709 67.2526Z" fill="#596680"/>
<path d="M110.143 65.1582H113.267V62.5663H114.253V68.7623H113.267V66.0308H110.143V68.7623H109.165V62.5663H110.143V65.1582Z" fill="#939DB2"/>
<path d="M110.143 65.1582H113.267V62.5663H114.253V68.7623H113.267V66.0308H110.143V68.7623H109.165V62.5663H110.143V65.1582Z" fill="#596680"/>
<path fill-rule="evenodd" clip-rule="evenodd" d="M127.892 62.8018C128.258 62.9822 128.569 63.2207 128.825 63.5175C129.087 63.8141 129.288 64.1516 129.427 64.5298C129.573 64.9021 129.646 65.2832 129.646 65.673C129.646 66.0861 129.57 66.4817 129.419 66.8599C129.273 67.238 129.067 67.5725 128.799 67.8634C128.531 68.1485 128.214 68.3783 127.848 68.5528C127.487 68.7216 127.094 68.8059 126.67 68.8059C126.228 68.8059 125.823 68.7187 125.457 68.5441C125.096 68.3638 124.785 68.1282 124.523 67.8373C124.261 67.5405 124.058 67.2031 123.912 66.8249C123.772 66.4468 123.703 66.0599 123.703 65.6643C123.703 65.2512 123.778 64.8556 123.93 64.4774C124.081 64.0992 124.287 63.7647 124.549 63.4738C124.817 63.1829 125.131 62.9531 125.492 62.7844C125.858 62.6098 126.257 62.5226 126.687 62.5226C127.129 62.5226 127.531 62.6157 127.892 62.8018ZM128.127 67.2089C128.296 66.9937 128.424 66.7522 128.511 66.4846C128.598 66.217 128.642 65.9435 128.642 65.6643C128.642 65.3676 128.595 65.0854 128.502 64.8178C128.409 64.5443 128.276 64.3058 128.101 64.1021C127.932 63.8927 127.726 63.7269 127.481 63.6047C127.243 63.4767 126.975 63.4127 126.678 63.4127C126.364 63.4127 126.085 63.4796 125.841 63.6135C125.596 63.7415 125.39 63.9101 125.221 64.1196C125.052 64.329 124.921 64.5705 124.828 64.8439C124.741 65.1115 124.698 65.385 124.698 65.6643C124.698 65.9551 124.744 66.2373 124.837 66.5107C124.93 66.7842 125.061 67.0256 125.23 67.2351C125.404 67.4445 125.614 67.6133 125.858 67.7413C126.103 67.8634 126.376 67.9245 126.678 67.9245C126.993 67.9245 127.269 67.8605 127.508 67.7325C127.752 67.5987 127.958 67.4242 128.127 67.2089Z" fill="#939DB2"/>
<path fill-rule="evenodd" clip-rule="evenodd" d="M127.892 62.8018C128.258 62.9822 128.569 63.2207 128.825 63.5175C129.087 63.8141 129.288 64.1516 129.427 64.5298C129.573 64.9021 129.646 65.2832 129.646 65.673C129.646 66.0861 129.57 66.4817 129.419 66.8599C129.273 67.238 129.067 67.5725 128.799 67.8634C128.531 68.1485 128.214 68.3783 127.848 68.5528C127.487 68.7216 127.094 68.8059 126.67 68.8059C126.228 68.8059 125.823 68.7187 125.457 68.5441C125.096 68.3638 124.785 68.1282 124.523 67.8373C124.261 67.5405 124.058 67.2031 123.912 66.8249C123.772 66.4468 123.703 66.0599 123.703 65.6643C123.703 65.2512 123.778 64.8556 123.93 64.4774C124.081 64.0992 124.287 63.7647 124.549 63.4738C124.817 63.1829 125.131 62.9531 125.492 62.7844C125.858 62.6098 126.257 62.5226 126.687 62.5226C127.129 62.5226 127.531 62.6157 127.892 62.8018ZM128.127 67.2089C128.296 66.9937 128.424 66.7522 128.511 66.4846C128.598 66.217 128.642 65.9435 128.642 65.6643C128.642 65.3676 128.595 65.0854 128.502 64.8178C128.409 64.5443 128.276 64.3058 128.101 64.1021C127.932 63.8927 127.726 63.7269 127.481 63.6047C127.243 63.4767 126.975 63.4127 126.678 63.4127C126.364 63.4127 126.085 63.4796 125.841 63.6135C125.596 63.7415 125.39 63.9101 125.221 64.1196C125.052 64.329 124.921 64.5705 124.828 64.8439C124.741 65.1115 124.698 65.385 124.698 65.6643C124.698 65.9551 124.744 66.2373 124.837 66.5107C124.93 66.7842 125.061 67.0256 125.23 67.2351C125.404 67.4445 125.614 67.6133 125.858 67.7413C126.103 67.8634 126.376 67.9245 126.678 67.9245C126.993 67.9245 127.269 67.8605 127.508 67.7325C127.752 67.5987 127.958 67.4242 128.127 67.2089Z" fill="#596680"/>
<path fill-rule="evenodd" clip-rule="evenodd" d="M135.518 63.2033C135.349 63.0113 135.146 62.8571 134.907 62.7408C134.674 62.6244 134.418 62.5663 134.139 62.5663H131.539V68.7623H132.516V66.6068H134.192C134.471 66.6068 134.724 66.5515 134.951 66.441C135.184 66.3247 135.381 66.1734 135.544 65.9872C135.707 65.7952 135.832 65.58 135.92 65.3414C136.013 65.097 136.059 64.844 136.059 64.5822C136.059 64.332 136.01 64.0877 135.911 63.8491C135.818 63.6047 135.687 63.3895 135.518 63.2033ZM134.994 65.0447C134.948 65.1843 134.884 65.3065 134.802 65.4112C134.721 65.5159 134.622 65.5974 134.506 65.6556C134.395 65.7138 134.27 65.7428 134.13 65.7428H132.516V63.4302H134.078C134.206 63.4302 134.328 63.4593 134.445 63.5175C134.567 63.5699 134.674 63.6484 134.768 63.7531C134.861 63.852 134.933 63.9713 134.986 64.1109C135.038 64.2505 135.064 64.4076 135.064 64.5822C135.064 64.7509 135.041 64.905 134.994 65.0447Z" fill="#939DB2"/>
<path fill-rule="evenodd" clip-rule="evenodd" d="M135.518 63.2033C135.349 63.0113 135.146 62.8571 134.907 62.7408C134.674 62.6244 134.418 62.5663 134.139 62.5663H131.539V68.7623H132.516V66.6068H134.192C134.471 66.6068 134.724 66.5515 134.951 66.441C135.184 66.3247 135.381 66.1734 135.544 65.9872C135.707 65.7952 135.832 65.58 135.92 65.3414C136.013 65.097 136.059 64.844 136.059 64.5822C136.059 64.332 136.01 64.0877 135.911 63.8491C135.818 63.6047 135.687 63.3895 135.518 63.2033ZM134.994 65.0447C134.948 65.1843 134.884 65.3065 134.802 65.4112C134.721 65.5159 134.622 65.5974 134.506 65.6556C134.395 65.7138 134.27 65.7428 134.13 65.7428H132.516V63.4302H134.078C134.206 63.4302 134.328 63.4593 134.445 63.5175C134.567 63.5699 134.674 63.6484 134.768 63.7531C134.861 63.852 134.933 63.9713 134.986 64.1109C135.038 64.2505 135.064 64.4076 135.064 64.5822C135.064 64.7509 135.041 64.905 134.994 65.0447Z" fill="#596680"/>
<path d="M138.912 62.5663L140.963 66.3537L143.014 62.5663H144.061V68.7623H143.075V64.3029L141.234 67.6802H140.693L138.843 64.3029V68.7623H137.865V62.5663H138.912Z" fill="#939DB2"/>
<path d="M138.912 62.5663L140.963 66.3537L143.014 62.5663H144.061V68.7623H143.075V64.3029L141.234 67.6802H140.693L138.843 64.3029V68.7623H137.865V62.5663H138.912Z" fill="#596680"/>
<path fill-rule="evenodd" clip-rule="evenodd" d="M148.181 62.5663L145.72 68.7623H146.758L147.404 67.078H149.795L150.45 68.7623H151.479L149.036 62.5663H148.181ZM147.579 66.3537L148.608 63.692L149.603 66.3537H147.579Z" fill="#939DB2"/>
<path fill-rule="evenodd" clip-rule="evenodd" d="M148.181 62.5663L145.72 68.7623H146.758L147.404 67.078H149.795L150.45 68.7623H151.479L149.036 62.5663H148.181ZM147.579 66.3537L148.608 63.692L149.603 66.3537H147.579Z" fill="#596680"/>
<path d="M156.837 62.5663H157.823V67.8984H158.765V70.3506H157.858V68.7623H153.145V62.5663H154.131V67.8984H156.837V62.5663Z" fill="#939DB2"/>
<path d="M156.837 62.5663H157.823V67.8984H158.765V70.3506H157.858V68.7623H153.145V62.5663H154.131V67.8984H156.837V62.5663Z" fill="#596680"/>
<path d="M161.489 67.2526V62.5663H160.503V68.7623H161.332L164.657 64.1633V68.7623H165.643V62.5663H164.867L161.489 67.2526Z" fill="#939DB2"/>
<path d="M161.489 67.2526V62.5663H160.503V68.7623H161.332L164.657 64.1633V68.7623H165.643V62.5663H164.867L161.489 67.2526Z" fill="#596680"/>
<path fill-rule="evenodd" clip-rule="evenodd" d="M171.733 62.8018C172.1 62.9822 172.411 63.2207 172.667 63.5175C172.929 63.8141 173.13 64.1516 173.269 64.5298C173.415 64.9021 173.487 65.2832 173.487 65.673C173.487 66.0861 173.412 66.4817 173.261 66.8599C173.115 67.238 172.909 67.5725 172.641 67.8634C172.373 68.1485 172.056 68.3783 171.69 68.5528C171.329 68.7216 170.936 68.8059 170.512 68.8059C170.069 68.8059 169.665 68.7187 169.299 68.5441C168.938 68.3638 168.627 68.1282 168.365 67.8373C168.103 67.5405 167.899 67.2031 167.754 66.8249C167.614 66.4468 167.544 66.0599 167.544 65.6643C167.544 65.2512 167.62 64.8556 167.771 64.4774C167.923 64.0992 168.129 63.7647 168.391 63.4738C168.659 63.1829 168.973 62.9531 169.333 62.7844C169.7 62.6098 170.098 62.5226 170.529 62.5226C170.971 62.5226 171.373 62.6157 171.733 62.8018ZM171.969 67.2089C172.138 66.9937 172.266 66.7522 172.353 66.4846C172.44 66.217 172.484 65.9435 172.484 65.6643C172.484 65.3676 172.437 65.0854 172.344 64.8178C172.251 64.5443 172.117 64.3058 171.943 64.1021C171.774 63.8927 171.568 63.7269 171.323 63.6047C171.085 63.4767 170.817 63.4127 170.52 63.4127C170.206 63.4127 169.927 63.4796 169.683 63.6135C169.438 63.7415 169.232 63.9101 169.063 64.1196C168.894 64.329 168.763 64.5705 168.67 64.8439C168.583 65.1115 168.539 65.385 168.539 65.6643C168.539 65.9551 168.586 66.2373 168.679 66.5107C168.772 66.7842 168.903 67.0256 169.072 67.2351C169.246 67.4445 169.456 67.6133 169.7 67.7413C169.944 67.8634 170.218 67.9245 170.52 67.9245C170.834 67.9245 171.111 67.8605 171.349 67.7325C171.594 67.5987 171.8 67.4242 171.969 67.2089Z" fill="#939DB2"/>
<path fill-rule="evenodd" clip-rule="evenodd" d="M171.733 62.8018C172.1 62.9822 172.411 63.2207 172.667 63.5175C172.929 63.8141 173.13 64.1516 173.269 64.5298C173.415 64.9021 173.487 65.2832 173.487 65.673C173.487 66.0861 173.412 66.4817 173.261 66.8599C173.115 67.238 172.909 67.5725 172.641 67.8634C172.373 68.1485 172.056 68.3783 171.69 68.5528C171.329 68.7216 170.936 68.8059 170.512 68.8059C170.069 68.8059 169.665 68.7187 169.299 68.5441C168.938 68.3638 168.627 68.1282 168.365 67.8373C168.103 67.5405 167.899 67.2031 167.754 66.8249C167.614 66.4468 167.544 66.0599 167.544 65.6643C167.544 65.2512 167.62 64.8556 167.771 64.4774C167.923 64.0992 168.129 63.7647 168.391 63.4738C168.659 63.1829 168.973 62.9531 169.333 62.7844C169.7 62.6098 170.098 62.5226 170.529 62.5226C170.971 62.5226 171.373 62.6157 171.733 62.8018ZM171.969 67.2089C172.138 66.9937 172.266 66.7522 172.353 66.4846C172.44 66.217 172.484 65.9435 172.484 65.6643C172.484 65.3676 172.437 65.0854 172.344 64.8178C172.251 64.5443 172.117 64.3058 171.943 64.1021C171.774 63.8927 171.568 63.7269 171.323 63.6047C171.085 63.4767 170.817 63.4127 170.52 63.4127C170.206 63.4127 169.927 63.4796 169.683 63.6135C169.438 63.7415 169.232 63.9101 169.063 64.1196C168.894 64.329 168.763 64.5705 168.67 64.8439C168.583 65.1115 168.539 65.385 168.539 65.6643C168.539 65.9551 168.586 66.2373 168.679 66.5107C168.772 66.7842 168.903 67.0256 169.072 67.2351C169.246 67.4445 169.456 67.6133 169.7 67.7413C169.944 67.8634 170.218 67.9245 170.52 67.9245C170.834 67.9245 171.111 67.8605 171.349 67.7325C171.594 67.5987 171.8 67.4242 171.969 67.2089Z" fill="#596680"/>
<path d="M179.483 65.1582H176.359V62.5663H175.381V68.7623H176.359V66.0308H179.483V68.7623H180.469V62.5663H179.483V65.1582Z" fill="#939DB2"/>
<path d="M179.483 65.1582H176.359V62.5663H175.381V68.7623H176.359V66.0308H179.483V68.7623H180.469V62.5663H179.483V65.1582Z" fill="#596680"/>
<path d="M183.759 65.1582H186.883V62.5663H187.869V68.7623H186.883V66.0308H183.759V68.7623H182.782V62.5663H183.759V65.1582Z" fill="#939DB2"/>
<path d="M183.759 65.1582H186.883V62.5663H187.869V68.7623H186.883V66.0308H183.759V68.7623H182.782V62.5663H183.759V65.1582Z" fill="#596680"/>
<path fill-rule="evenodd" clip-rule="evenodd" d="M194.904 63.5175C194.648 63.2207 194.337 62.9822 193.97 62.8018C193.609 62.6157 193.208 62.5226 192.766 62.5226C192.335 62.5226 191.937 62.6098 191.57 62.7844C191.21 62.9531 190.895 63.1829 190.628 63.4738C190.366 63.7647 190.159 64.0992 190.008 64.4774C189.857 64.8556 189.781 65.2512 189.781 65.6643C189.781 66.0599 189.851 66.4468 189.991 66.8249C190.136 67.2031 190.34 67.5405 190.602 67.8373C190.863 68.1282 191.175 68.3638 191.535 68.5441C191.902 68.7187 192.306 68.8059 192.748 68.8059C193.173 68.8059 193.566 68.7216 193.927 68.5528C194.293 68.3783 194.61 68.1485 194.878 67.8634C195.145 67.5725 195.352 67.238 195.497 66.8599C195.649 66.4817 195.724 66.0861 195.724 65.673C195.724 65.2832 195.652 64.9021 195.506 64.5298C195.366 64.1516 195.166 63.8141 194.904 63.5175ZM194.59 66.4846C194.503 66.7522 194.374 66.9937 194.206 67.2089C194.037 67.4242 193.831 67.5987 193.586 67.7325C193.348 67.8605 193.071 67.9245 192.757 67.9245C192.455 67.9245 192.181 67.8634 191.937 67.7413C191.692 67.6133 191.483 67.4445 191.308 67.2351C191.14 67.0256 191.009 66.7842 190.916 66.5107C190.823 66.2373 190.776 65.9551 190.776 65.6643C190.776 65.385 190.82 65.1115 190.907 64.8439C191 64.5705 191.131 64.329 191.3 64.1196C191.468 63.9101 191.675 63.7415 191.919 63.6135C192.164 63.4796 192.443 63.4127 192.757 63.4127C193.054 63.4127 193.321 63.4767 193.56 63.6047C193.804 63.7269 194.011 63.8927 194.18 64.1021C194.354 64.3058 194.488 64.5443 194.581 64.8178C194.674 65.0854 194.721 65.3676 194.721 65.6643C194.721 65.9435 194.677 66.217 194.59 66.4846Z" fill="#939DB2"/>
<path fill-rule="evenodd" clip-rule="evenodd" d="M194.904 63.5175C194.648 63.2207 194.337 62.9822 193.97 62.8018C193.609 62.6157 193.208 62.5226 192.766 62.5226C192.335 62.5226 191.937 62.6098 191.57 62.7844C191.21 62.9531 190.895 63.1829 190.628 63.4738C190.366 63.7647 190.159 64.0992 190.008 64.4774C189.857 64.8556 189.781 65.2512 189.781 65.6643C189.781 66.0599 189.851 66.4468 189.991 66.8249C190.136 67.2031 190.34 67.5405 190.602 67.8373C190.863 68.1282 191.175 68.3638 191.535 68.5441C191.902 68.7187 192.306 68.8059 192.748 68.8059C193.173 68.8059 193.566 68.7216 193.927 68.5528C194.293 68.3783 194.61 68.1485 194.878 67.8634C195.145 67.5725 195.352 67.238 195.497 66.8599C195.649 66.4817 195.724 66.0861 195.724 65.673C195.724 65.2832 195.652 64.9021 195.506 64.5298C195.366 64.1516 195.166 63.8141 194.904 63.5175ZM194.59 66.4846C194.503 66.7522 194.374 66.9937 194.206 67.2089C194.037 67.4242 193.831 67.5987 193.586 67.7325C193.348 67.8605 193.071 67.9245 192.757 67.9245C192.455 67.9245 192.181 67.8634 191.937 67.7413C191.692 67.6133 191.483 67.4445 191.308 67.2351C191.14 67.0256 191.009 66.7842 190.916 66.5107C190.823 66.2373 190.776 65.9551 190.776 65.6643C190.776 65.385 190.82 65.1115 190.907 64.8439C191 64.5705 191.131 64.329 191.3 64.1196C191.468 63.9101 191.675 63.7415 191.919 63.6135C192.164 63.4796 192.443 63.4127 192.757 63.4127C193.054 63.4127 193.321 63.4767 193.56 63.6047C193.804 63.7269 194.011 63.8927 194.18 64.1021C194.354 64.3058 194.488 64.5443 194.581 64.8178C194.674 65.0854 194.721 65.3676 194.721 65.6643C194.721 65.9435 194.677 66.217 194.59 66.4846Z" fill="#596680"/>
<path d="M201.361 66.0047H198.595V67.8984H201.867V68.7623H197.617V62.5663H201.789V63.4302H198.595V65.193H201.361V66.0047Z" fill="#939DB2"/>
<path d="M201.361 66.0047H198.595V67.8984H201.867V68.7623H197.617V62.5663H201.789V63.4302H198.595V65.193H201.361V66.0047Z" fill="#596680"/>
<path fill-rule="evenodd" clip-rule="evenodd" d="M176.952 14.0903C166.552 14.0903 158.094 22.599 158.094 32.9488C158.094 43.4478 166.552 51.9067 176.952 51.9067C187.451 51.9067 195.91 43.4478 195.91 32.9488C195.91 22.599 187.451 14.0903 176.952 14.0903ZM176.952 46.1844C169.787 46.1844 163.866 40.2632 163.866 32.9488C163.866 25.7835 169.787 19.8623 176.952 19.8623C184.266 19.8623 190.138 25.7835 190.138 32.9488C190.138 40.2632 184.266 46.1844 176.952 46.1844Z" fill="#293D66"/>
<path d="M101.965 33.5631C100.738 34.5941 98.8226 35.7233 97.596 35.7233C95.3861 35.7233 95.3377 33.1213 95.3377 30.7646V15.5448H89.6914V30.7646C89.6914 38.9145 92.7351 41.3694 96.957 41.3694C98.7246 41.3694 100.542 40.5347 101.965 39.5528V50.5013H107.66V15.5448H101.965V33.5631Z" fill="#293D66"/>
<path d="M119.173 20.5454L119.172 20.5398C118.772 18.8804 118.372 17.2165 117.971 15.5448H112.03L119.297 43.0386L117.284 50.5013H123.076L132.405 15.5448H126.416C125.246 20.6007 124.04 25.5855 122.829 30.59L122.829 30.5904L122.829 30.5911L122.828 30.592L122.81 30.6683C122.604 31.5179 122.399 32.3681 122.193 33.2194C121.205 28.9876 120.193 24.7812 119.173 20.5454Z" fill="#293D66"/>
<path d="M144.378 30.1754L149.73 15.5448H155.916L149.288 32.9739L155.916 50.5013H149.73L144.378 35.8215H142.218V50.5013H136.523V15.5448H142.218V30.1754H144.378Z" fill="#293D66"/>
<path d="M203.307 21.24H196.679V15.5448H215.63V21.24H209.002V50.5013H203.307V21.24Z" fill="#293D66"/>
<path d="M233.93 15.5448L228.578 30.1754H226.418V15.5448H220.723V50.5013H226.418V35.8215H228.578L233.93 50.5013H240.116L233.487 32.9739L240.116 15.5448H233.93Z" fill="#293D66"/>
<path fill-rule="evenodd" clip-rule="evenodd" d="M250.912 15.5448H256.41L265.002 50.5013H259.209L258.374 47.0155H248.849L248.014 50.5013H242.32L250.912 15.5448ZM253.611 25.7077L250.224 41.4184H257.049L253.611 25.7077Z" fill="#293D66"/>
<path d="M40.1307 0H40.4724C43.6461 0.705913 46.5207 2.30189 49.3282 3.88559C50.9394 3.32086 52.868 3.55412 53.9483 5.00278C55.7191 7.20253 57.2458 9.59019 58.5013 12.1233C59.7219 12.2154 61.4064 12.5591 61.4552 14.1121C61.7543 15.4012 60.5642 16.1378 59.7219 16.8069C61.5529 25.7812 59.667 35.2772 55.1628 43.2019C56.142 42.1333 57.0532 41.0036 57.891 39.8196C58.6111 41.0842 63.8843 50.6048 62.8712 58.7013C62.4968 61.413 61.5093 64.0022 59.9844 66.2699C59.3243 67.42 58.2926 68.3082 57.0609 68.7866C56.9633 68.8235 54.7661 69.5294 53.7286 68.492C52.691 67.4546 53.4661 65.122 53.7591 63.8514C54.3694 61.1321 54.0398 57.0071 49.7798 50.8626C48.8033 51.857 44.1649 56.7309 43.4569 62.7895C43.1517 65.3737 42.9625 68.848 43.9207 70.8614C44.2686 71.5857 44.5311 71.7944 44.3663 72.8441C44.1981 73.4467 43.8298 73.9731 43.3226 74.3357C42.1386 75.1276 41.864 75.2319 40.8203 75.3363C39.4654 75.4713 38.4767 74.4155 37.9579 73.9306C34.7232 70.9289 33.0754 62.194 32.9167 61.1751C27.713 62.7817 22.2294 63.2587 16.8287 62.5746C16.5179 64.043 16.6215 65.5696 17.1277 66.982C17.4939 68.136 18.7756 70.3212 18.5192 71.2297L18.3483 71.8436C18.2287 72.0794 18.0625 72.2882 17.8601 72.4574C17.5092 72.7408 17.0863 72.9194 16.6395 72.973C16.1183 73.0449 15.5883 73.0179 15.077 72.8932C12.7211 72.0226 10.6219 70.5678 8.97384 68.6639C6.36777 65.4105 4.43916 58.2962 4.65888 49.1684C3.91365 49.299 3.14997 49.2781 2.4129 49.107C1.66627 48.9171 0.964906 48.579 0.350019 48.1126C0.241554 48.0328 0.153331 47.9284 0.0925133 47.8079C0.031696 47.6874 0 47.5541 0 47.419C0 47.2838 0.031696 47.1506 0.0925133 47.03C0.153331 46.9095 0.241554 46.8051 0.350019 46.7253C1.93685 45.4977 4.3171 43.6254 7.06354 41.1087C11.8057 36.7259 11.9034 34.8414 15.7606 32.03C21.2535 28.0156 28.1196 25.8119 34.9735 25.1244C31.8303 28.1076 28.6994 31.2628 26.6548 35.1361C30.1947 30.299 34.8209 26.4625 39.3311 22.5892C41.8396 20.5943 41.8884 16.9726 41.1621 14.1121C40.68 11.4235 38.8978 9.20143 38.3302 6.54965C37.9882 5.39807 37.9757 4.17286 38.2941 3.01446C38.6125 1.85605 39.249 0.811322 40.1307 0Z" fill="#293D66"/>
<path d="M40.6332 35.5532C45.124 31.9143 48.7973 27.36 51.4115 22.19C52.7114 26.6342 52.4795 31.6983 49.788 35.6023C45.8637 42.3545 37.4901 45.5526 35.0244 53.3361C34.2163 50.1407 34.3102 46.782 35.2956 43.6373C36.2811 40.4927 38.1189 37.6867 40.6027 35.5348L40.6332 35.5532Z" fill="white"/>
<path d="M44.957 73.6613C45.195 73.4403 45.7931 73.784 45.8419 73.8147C46.1365 74.0069 46.3779 74.2708 46.5438 74.582C46.7818 74.9565 47.0748 75.4414 47.3982 76.0246C46.8933 75.8236 46.4037 75.5856 45.9335 75.3125C45.5626 75.1564 45.2491 74.8883 45.0363 74.5452C44.902 74.3119 44.7678 73.8638 44.957 73.6613Z" fill="#293D66"/>
<path d="M43.4206 74.8877C43.6586 74.6667 44.2567 75.0104 44.3056 75.035C44.6004 75.2294 44.8417 75.4954 45.0074 75.8084C45.2454 76.1829 45.5384 76.6678 45.8619 77.2509C45.3569 77.05 44.8674 76.812 44.3971 76.5389C44.0275 76.3807 43.7146 76.1131 43.4999 75.7716C43.3657 75.5322 43.2253 75.0779 43.4206 74.8877Z" fill="#293D66"/>
<path d="M41.455 75.6366C41.693 75.4156 42.2911 75.7593 42.3339 75.7839C42.6418 75.9739 42.896 76.2402 43.0724 76.5573C43.3104 76.9318 43.6033 77.4167 43.9268 77.9998C43.4219 77.7989 42.9323 77.5609 42.462 77.2878C42.092 77.1277 41.7776 76.8606 41.5588 76.5205C41.4001 76.2688 41.2414 75.8146 41.455 75.6366Z" fill="#293D66"/>
<path d="M56.4262 69.6156C56.6825 69.8243 56.4262 70.4627 56.4262 70.5118C56.2766 70.8327 56.0475 71.1096 55.7609 71.3159C55.4313 71.6044 54.9919 71.9666 54.4609 72.3717C54.5915 71.8409 54.7587 71.3199 54.9614 70.8126C55.0594 70.4246 55.2722 70.0757 55.5717 69.812C55.7975 69.6463 56.2248 69.4498 56.4262 69.6156Z" fill="#293D66"/>
<path d="M54.6706 69.217C54.9208 69.4257 54.6706 70.0641 54.6706 70.1193C54.5174 70.438 54.289 70.7141 54.0053 70.9235C53.6696 71.212 53.2363 71.5741 52.6992 71.9731C52.8335 71.4434 53.0007 70.9227 53.1997 70.414C53.3095 70.0238 53.5327 69.6754 53.8405 69.4134C54.0602 69.2477 54.4814 69.0513 54.6706 69.217Z" fill="#293D66"/>
<path d="M53.3073 68.3814C53.5575 68.5901 53.3073 69.2285 53.3073 69.2838C53.1559 69.6035 52.9271 69.88 52.642 70.0879C52.3063 70.3764 51.873 70.7386 51.3359 71.1376C51.4702 70.6078 51.6374 70.0871 51.8364 69.5784C51.9463 69.1882 52.1694 68.8398 52.4772 68.5779C52.6786 68.4183 53.1059 68.2157 53.3073 68.3814Z" fill="#293D66"/>
<path d="M18.7646 71.8743C19.0026 71.6533 19.6008 71.997 19.6435 72.0216C19.9402 72.2157 20.1836 72.4816 20.3515 72.795C20.5895 73.1695 20.8824 73.6544 21.2059 74.2375C20.7015 74.0353 20.2121 73.7973 19.7411 73.5255C19.3711 73.3654 19.0567 73.0983 18.8379 72.7582C18.7097 72.5065 18.5693 72.0523 18.7646 71.8743Z" fill="#293D66"/>
<path d="M17.4921 73.0964C17.7301 72.8693 18.3282 73.213 18.3771 73.2437C18.6719 73.4382 18.9133 73.7042 19.0789 74.0172C19.317 74.3855 19.6099 74.8704 19.9334 75.4597C19.4293 75.2544 18.9399 75.0145 18.4686 74.7415C18.0978 74.5854 17.7843 74.3173 17.5715 73.9742C17.4372 73.7225 17.3029 73.2744 17.4921 73.0964Z" fill="#293D66"/>
<path d="M15.6076 73.4645C15.8456 73.2435 16.4437 73.5873 16.4864 73.6118C16.7832 73.8059 17.0266 74.0719 17.1944 74.3853C17.4324 74.7597 17.7254 75.2447 18.0489 75.8278C17.5445 75.6255 17.055 75.3876 16.5841 75.1157C16.2141 74.9557 15.8997 74.6886 15.6808 74.3484C15.571 74.0968 15.4306 73.6609 15.6076 73.4645Z" fill="#293D66"/>
</svg>
