<svg width="10" height="16" viewBox="0 0 10 16" fill="none" xmlns="http://www.w3.org/2000/svg">
<path fill-rule="evenodd" clip-rule="evenodd" d="M4.94684 0C4.14846 0 3.36801 0.239357 2.70419 0.687802C2.04036 1.13625 1.52297 1.77364 1.21745 2.51938C0.91192 3.26511 0.83198 4.0857 0.987736 4.87737C1.14349 5.66904 1.52795 6.39624 2.09248 6.967C2.65702 7.53777 3.37629 7.92646 4.15932 8.08393C4.94236 8.24141 5.754 8.16059 6.4916 7.85169C7.22921 7.5428 7.85965 7.0197 8.3032 6.34856C8.74676 5.67741 8.9835 4.88836 8.9835 4.08118C8.9835 2.99878 8.55821 1.96072 7.80119 1.19535C7.04417 0.42998 6.01743 0 4.94684 0ZM4.94684 2.44871C5.26619 2.44871 5.57837 2.54445 5.8439 2.72383C6.10943 2.9032 6.31638 3.15816 6.43859 3.45646C6.56081 3.75475 6.59278 4.08299 6.53048 4.39965C6.46818 4.71632 6.31439 5.0072 6.08858 5.23551C5.86276 5.46381 5.57506 5.61929 5.26184 5.68228C4.94863 5.74527 4.62397 5.71294 4.32893 5.58938C4.03389 5.46582 3.78171 5.25659 3.60429 4.98813C3.42687 4.71967 3.33217 4.40405 3.33217 4.08118C3.33266 3.64837 3.50293 3.23343 3.80563 2.92739C4.10834 2.62135 4.51875 2.4492 4.94684 2.44871Z" fill="#293D66"/>
<path d="M3.45549 11.4824C2.60911 11.3112 1.79418 10.9945 1.04735 10.5424C0.790717 10.3861 0.605912 10.1333 0.533515 9.8394C0.461119 9.54551 0.50705 9.23458 0.661223 8.9749C0.815395 8.71522 1.0652 8.52802 1.35579 8.4544C1.64637 8.38079 1.95398 8.42678 2.21104 8.58229C3.05575 9.08125 4.01826 9.33984 4.99653 9.33065C5.9748 9.32145 6.93238 9.04481 7.76776 8.53005C7.89362 8.44997 8.03386 8.39578 8.18046 8.3706C8.32706 8.34542 8.47714 8.34973 8.62209 8.38329C8.76704 8.41685 8.90401 8.479 9.02516 8.56618C9.14631 8.65336 9.24925 8.76385 9.32809 8.89133C9.40693 9.0188 9.46011 9.16076 9.48458 9.30905C9.50906 9.45734 9.50435 9.60906 9.47073 9.7555C9.43711 9.90195 9.37523 10.0403 9.28865 10.1625C9.20206 10.2847 9.09247 10.3885 8.96615 10.4678C8.18758 10.9598 7.33068 11.3022 6.43842 11.4826L8.97562 14.0478C9.13366 14.2076 9.24128 14.4112 9.28486 14.6329C9.32844 14.8545 9.30603 15.0843 9.22045 15.2931C9.13488 15.5019 8.98999 15.6803 8.80411 15.8058C8.61823 15.9314 8.39971 15.9983 8.17617 15.9983C8.02767 15.9985 7.8806 15.969 7.7434 15.9116C7.60621 15.8541 7.4816 15.7698 7.37673 15.6635L4.94684 13.2068L2.51695 15.6635C2.41209 15.77 2.28749 15.8545 2.15028 15.9123C2.01307 15.97 1.86595 15.9998 1.71733 16C1.56871 16.0002 1.42151 15.9707 1.28416 15.9133C1.14681 15.8559 1.022 15.7717 0.916888 15.6655C0.811771 15.5593 0.728406 15.4331 0.671565 15.2943C0.614723 15.1555 0.585521 15.0066 0.585629 14.8564C0.585737 14.7061 0.615155 14.5574 0.672197 14.4186C0.729239 14.2799 0.812785 14.1538 0.918055 14.0478L3.45549 11.4824Z" fill="#293D66"/>
</svg>
