<svg width="14" height="14" viewBox="0 0 14 14" fill="none" xmlns="http://www.w3.org/2000/svg">
<path d="M0.00225931 7.44022C1.75042 7.44022 3.39381 8.12039 4.62882 9.35752C5.86609 10.5947 6.54729 12.2425 6.54729 13.9966H9.24127C9.24127 8.90155 5.09651 4.75668 0.00225931 4.75668V7.44022ZM0.0064956 2.68326C6.23691 2.68326 11.306 7.75977 11.306 14H14C14 6.27989 7.72214 0 0.0064956 0V2.68326ZM3.73187 12.1255C3.73187 13.1516 2.89619 13.984 1.86593 13.984C0.835674 13.984 0 13.1519 0 12.1255C0 11.0987 0.835391 10.2669 1.86565 10.2669C2.89591 10.2669 3.73187 11.0987 3.73187 12.1255Z" fill="#293D66"/>
</svg>
