<svg width="60" height="46" viewBox="0 0 60 46" fill="none" xmlns="http://www.w3.org/2000/svg">
<path d="M54.4061 39.7376C55.9252 36.2608 56.768 32.4208 56.768 28.384C56.768 12.7079 44.0599 0 28.384 0C12.7079 0 0 12.7079 0 28.384C0 32.4208 0.723248 36.2608 2.24233 39.7376H54.4061Z" fill="#293D66"/>
<path d="M55.4943 23.8675L55.2531 23.9695C52.2173 25.254 49.3198 26.4801 46.5109 28.263C44.3078 29.6615 42.195 31.1881 40.1571 32.8099C40.3956 32.9285 40.6084 33.0469 40.6478 33.0875C40.8064 33.6157 40.5932 35.0945 40.4453 35.7533C40.3734 36.0733 40.3053 36.3768 40.2797 36.6326C40.1435 37.9925 40.1776 39.3842 40.5068 40.7159C40.6434 41.2686 41.2122 41.9411 41.7638 42.5932C42.4113 43.3588 43.035 44.0962 42.9077 44.5784C42.8176 44.9194 42.4413 45.3461 41.7141 45.3461C40.512 45.3461 38.2282 45.3494 38.1216 45.3494C37.548 45.3494 37.1184 44.9199 36.9713 44.7929C35.583 43.5937 33.8261 41.3605 32.9273 39.7373C32.9128 39.7111 32.652 39.4878 32.6435 39.4535C31.8784 40.2033 31.033 41.082 30.2872 41.8495C29.5545 42.6035 29.8613 42.9644 30.2042 43.3677C30.4692 43.6793 30.7556 44.0163 30.6002 44.5796C30.4775 45.0247 29.8615 45.3438 29.4601 45.3438C28.1466 45.3438 27.1895 45.3466 25.8928 45.3466C25.0143 45.3466 24.698 44.4213 24.5217 43.7527C23.9951 41.7573 24.6424 39.7719 25.4556 37.9605C25.9873 36.7759 26.0746 36.5812 23.948 36.7098C23.2794 36.7502 22.6268 36.8535 21.9833 36.9879C22.0786 37.3754 21.726 38.321 21.585 38.9775C21.4101 39.7916 21.3224 40.6315 21.2777 41.4643C21.2457 42.0632 21.6394 42.611 22.0041 43.1185C22.3668 43.6232 22.7009 44.0881 22.559 44.5235C22.4243 44.9369 22.056 45.3182 21.6412 45.3289C21.406 45.335 20.786 45.3433 20.4584 45.3433C18.3196 45.3433 18.2059 45.368 17.4163 44.8506C16.9412 44.5392 16.6782 43.9041 16.1458 42.618C15.6942 41.5276 15.2589 40.6073 15.5182 39.8667C15.2782 40.0295 15.0373 40.1911 14.8028 40.3618C14.6497 40.4731 14.4849 40.5866 14.3154 40.7034C13.7207 41.113 13.0677 41.5628 12.6593 42.0988C11.937 43.0463 12.1664 43.2202 12.4546 43.4386C12.7115 43.6334 12.9412 43.9529 12.6593 44.798C12.5949 44.9908 12.3117 45.3457 11.8439 45.3457C10.4105 45.3457 8.97709 45.3457 7.54365 45.3457C5.52958 45.3457 5.49292 40.9151 6.07938 39.7129C6.40448 39.0465 6.8283 38.3461 7.26612 37.6226C8.32716 35.869 9.47035 33.9799 9.48823 32.1112C9.49453 31.4588 9.40608 30.1285 8.96625 29.5996C8.72135 29.3052 8.41593 29.2628 8.14442 29.2251C7.70588 29.1643 7.35586 29.1157 7.49227 28.0375C7.79832 25.6179 9.09126 23.8007 11.184 22.6889C17.0526 19.5713 23.2338 19.4776 29.4796 19.3829C33.758 19.3181 38.0667 19.2527 42.326 18.2147C42.627 18.1413 42.9594 18.2152 43.2606 18.2822C43.6556 18.3699 43.9972 18.4459 44.1449 18.1629C44.8274 16.8559 45.4824 16.9546 46.466 17.1027C46.7109 17.1396 46.9761 17.1795 47.2672 17.2016C48.1873 17.2714 49.0957 17.0917 50.0045 16.9118C50.8835 16.7379 51.763 16.5638 52.6541 16.6154C53.2993 16.6527 53.8924 16.7779 54.4831 16.9028C55.2336 17.0614 55.9803 17.2192 56.825 17.1945C56.9811 17.19 57.1582 17.1733 57.3455 17.1557C58.2249 17.073 59.3296 16.9691 59.5419 17.9992C59.8899 20.8613 57.9251 22.8385 55.4943 23.8675Z" fill="white"/>
<path d="M38.1183 45.4152C37.4306 45.4152 36.9378 44.9773 36.7274 44.7899C34.9459 43.2543 33.7141 41.8316 32.9236 40.4077C32.7944 40.1749 32.6974 39.9532 32.6325 39.7442C31.9559 40.4083 31.2746 41.0923 30.5894 41.7956C30.1265 42.2706 30.203 42.3607 30.5253 42.7384C30.8031 43.0641 31.2227 43.5568 31.0076 44.3353C30.8325 44.9685 30.0497 45.4097 29.4568 45.4097L25.8896 45.4125C24.6107 45.4125 24.2445 44.0279 24.1068 43.5065C23.5294 41.3234 24.2667 39.2183 25.0639 37.4467C25.1717 37.2072 25.2912 36.9418 25.3317 36.7942C25.1354 36.7527 24.6789 36.7544 23.9707 36.7975C23.4418 36.829 22.9138 36.8926 22.3857 36.9888C22.3871 37.2946 22.2815 37.6706 22.1612 38.0986C22.1019 38.3098 22.0409 38.5255 21.9982 38.724C21.8469 39.4268 21.749 40.2169 21.6997 41.1382C21.6756 41.5855 22.0162 42.0588 22.3458 42.5161C22.7511 43.079 23.1693 43.6591 22.9609 44.2983C22.7918 44.8147 22.3092 45.3782 21.6487 45.3948C21.4117 45.4009 20.7858 45.4092 20.4551 45.4092H20.1738C18.2778 45.4081 18.0394 45.4103 17.1796 44.8479C16.595 44.4664 16.3128 43.7863 15.7504 42.4315L15.6963 42.3016C15.4011 41.5927 15.1251 40.9291 15.1018 40.3215C15.0846 40.3342 15.0674 40.3463 15.0502 40.3591C14.8942 40.4724 14.7259 40.588 14.5529 40.7063C13.9952 41.0901 13.3622 41.5247 12.9943 42.0057C12.6104 42.5084 12.6002 42.666 12.6004 42.6826C12.6032 42.6676 12.6636 42.7124 12.7083 42.7461C13.2327 43.1432 13.3444 43.7243 13.0597 44.5748C12.9516 44.8982 12.525 45.4114 11.8407 45.4114H7.54038C7.10575 45.4114 6.48651 45.2499 6.00559 44.4824C5.12109 43.0702 5.18456 40.2225 5.6932 39.1824C6.0286 38.4973 6.47099 37.7685 6.89869 37.0635C7.95256 35.3266 9.04246 33.5301 9.05937 31.7822C9.06741 30.9362 8.92438 29.8989 8.63555 29.5527C8.50305 29.3935 8.34727 29.3653 8.08339 29.3288C7.33859 29.2254 6.90923 28.9119 7.06667 27.6699C7.38543 25.1573 8.73894 23.2015 10.9808 22.0135C16.9404 18.8553 23.3101 18.7591 29.4701 18.6662C33.6678 18.6029 38.0088 18.5371 42.2218 17.513C42.6193 17.416 43.0243 17.5061 43.3497 17.5786C43.5046 17.6126 43.738 17.6651 43.8068 17.6444C44.5871 16.1055 45.5276 16.2468 46.526 16.3963C46.761 16.432 47.0163 16.4704 47.2957 16.4915C48.1603 16.5578 49.014 16.3881 49.9188 16.2094C50.8091 16.0333 51.7299 15.8495 52.6757 15.9064C53.3526 15.9454 53.9701 16.0756 54.5675 16.2014C55.3126 16.3579 56.0144 16.5028 56.8096 16.4837C56.9568 16.4793 57.1248 16.463 57.3022 16.4464C58.1873 16.3637 59.6666 16.2249 59.9554 17.625C60.2914 20.366 58.7225 22.6607 55.6571 23.9546L55.4157 24.0564C52.3816 25.337 49.5157 26.5463 46.7358 28.3064C44.8878 29.4764 43.0387 30.7781 41.1763 32.2224C41.3828 33.0391 40.863 35.4876 40.8575 35.5119C40.7874 35.8232 40.7228 36.1107 40.7001 36.338C40.5551 37.7806 40.628 39.1022 40.9168 40.2673C41.0296 40.7223 41.5907 41.3837 42.0857 41.967C42.8447 42.8623 43.4999 43.6347 43.3162 44.3298C43.1734 44.8684 42.6218 45.4119 41.711 45.4119L38.1183 45.4152ZM33.4389 38.9601C33.3194 39.1133 33.4111 39.5324 33.6686 39.9963C34.4096 41.3311 35.5798 42.6781 37.2463 44.1142L37.294 44.1562C37.4437 44.2889 37.7549 44.5659 38.1183 44.5659L41.711 44.5626C42.2343 44.5626 42.4486 44.28 42.4929 44.113C42.5636 43.846 41.8576 43.0132 41.4357 42.5161C40.8531 41.8288 40.2507 41.1188 40.0902 40.4708C39.7779 39.2117 39.698 37.7928 39.853 36.2534C39.8807 35.9753 39.9508 35.6634 40.0248 35.3333C40.1817 34.6377 40.3511 33.4986 40.3738 32.8527C38.0934 34.667 35.79 36.6963 33.4389 38.9601ZM24.8463 35.9133C25.496 35.9133 25.8694 36.0029 26.074 36.2987C26.3409 36.6836 26.1419 37.1254 25.8406 37.795C25.1044 39.4307 24.4206 41.3627 24.93 43.2897C25.1659 44.1822 25.4531 44.5631 25.8896 44.5631L29.4568 44.5604C29.7098 44.5604 30.1248 44.3331 30.1866 44.1097C30.2778 43.7796 30.1431 43.6016 29.8767 43.2891C29.5399 42.8938 28.9761 42.233 29.9784 41.204C30.9347 40.2225 31.8816 39.2802 32.8216 38.374C32.831 38.364 32.8404 38.3541 32.8501 38.3447L32.8512 38.3458C37.4428 33.9238 41.8615 30.3866 46.2796 27.5897C49.1191 25.7915 52.0165 24.569 55.0839 23.2745L55.3253 23.1728C56.5979 22.6353 59.5147 21.0326 59.1158 17.7619C59.0058 17.236 58.4911 17.1868 57.3826 17.2919C57.1852 17.3107 56.999 17.3275 56.8346 17.3325C55.9407 17.3601 55.1526 17.1929 54.3923 17.0325C53.7988 16.9075 53.2392 16.7898 52.6263 16.7541C51.7909 16.7052 50.9607 16.8694 50.084 17.0427C49.1629 17.2247 48.211 17.4127 47.2317 17.3386C46.9293 17.3159 46.6535 17.2747 46.3993 17.2363C45.4522 17.0944 45.0608 17.0356 44.5191 18.0704C44.2206 18.6411 43.5864 18.5009 43.1659 18.4077C42.9012 18.3491 42.6284 18.2877 42.4236 18.338C38.1172 19.385 33.728 19.4514 29.4828 19.5155C23.1449 19.6112 17.1588 19.7016 11.3805 22.7633C9.39338 23.8164 8.19399 25.5499 7.91154 27.7761C7.84279 28.3174 7.92955 28.428 7.93066 28.4291C7.96004 28.454 8.11 28.475 8.19981 28.4872C8.49502 28.5281 8.94018 28.59 9.29027 29.0097C9.89897 29.7396 9.91394 31.4538 9.91089 31.79C9.89176 33.7706 8.68877 35.7535 7.62714 37.5036C7.19002 38.2241 6.77701 38.9042 6.45852 39.5551C6.09263 40.3032 5.98619 42.8484 6.72767 44.0323C6.95108 44.389 7.2169 44.562 7.54038 44.562H11.8407C12.1018 44.562 12.2379 44.3458 12.252 44.306C12.476 43.6364 12.2994 43.5026 12.1938 43.423C12.038 43.3052 11.8021 43.1266 11.7564 42.7931C11.7096 42.4509 11.872 42.0738 12.3172 41.4909C12.7673 40.9021 13.4597 40.4265 14.0704 40.0068C14.2375 39.8924 14.3991 39.7812 14.5491 39.6723C15.058 39.3029 15.5641 38.9617 16.0672 38.6477C16.1249 38.6095 16.1859 38.5719 16.2499 38.5349C18.8402 36.9523 21.3643 36.1035 23.9191 35.9493C24.2778 35.9277 24.5846 35.9133 24.8463 35.9133ZM16.506 39.3759C15.6836 39.9266 15.866 40.494 16.4827 41.9759L16.5359 42.1036C17.0327 43.3002 17.2813 43.8996 17.6461 44.1374C18.2875 44.5571 18.3166 44.5637 20.1735 44.5598H20.4551C20.7797 44.5598 21.3939 44.5515 21.6268 44.5455C21.8255 44.5405 22.0606 44.3116 22.1512 44.0351C22.2261 43.8056 21.9358 43.4031 21.6553 43.0132C21.2581 42.4619 20.8091 41.8388 20.8493 41.0928C20.9014 40.1263 21.0048 39.293 21.1655 38.5459C21.2118 38.3308 21.277 38.0975 21.3413 37.8691C21.4003 37.6595 21.4796 37.377 21.5159 37.1763C19.9318 37.5705 18.3415 38.2562 16.7192 39.2443L16.7197 39.2454C16.7095 39.2509 16.6995 39.2565 16.6898 39.2626C16.6288 39.2996 16.5673 39.3378 16.506 39.3759Z" fill="#293D66"/>
</svg>
