<svg id="telega" width="16" height="14" viewBox="0 0 16 14" fill="none" xmlns="http://www.w3.org/2000/svg">
<path d="M15.7901 0.149541C15.5648 -0.0380885 15.2008 -0.0551456 14.5769 0.132484C14.1436 0.268942 10.2959 1.70175 6.89889 3.08338C3.84848 4.32856 1.37003 5.42022 1.07539 5.55668C0.746083 5.65902 0.0354772 5.96605 0.000813508 6.44365C-0.0165183 6.75068 0.243459 7.0236 0.746083 7.24534C1.28337 7.51826 3.65783 8.30289 4.16046 8.4564C4.33377 9.03635 5.35635 12.4307 5.40835 12.6354C5.47768 12.9425 5.68566 13.113 5.78965 13.1813C5.80698 13.1983 5.84164 13.2324 5.87631 13.2495C5.9283 13.2836 5.99763 13.3007 6.08429 13.3007C6.20561 13.3007 6.34427 13.2495 6.46559 13.1642C7.10687 12.6525 8.21611 11.5096 8.52808 11.1856C9.8973 12.2431 11.3878 13.4201 11.5265 13.5565L11.5438 13.5736C11.8731 13.8465 12.2198 14 12.5317 14C12.6357 14 12.7397 13.9829 12.8437 13.9488C13.2077 13.8294 13.4677 13.4883 13.5543 13.0277C13.5543 13.0107 13.5716 12.9425 13.6063 12.8231C14.1956 10.2986 14.6636 8.08115 15.0449 6.22191C15.4088 4.39679 15.7035 2.60578 15.8768 1.65058C15.9114 1.41177 15.9461 1.22415 15.9634 1.10475C16.0154 0.763601 16.0501 0.371285 15.7901 0.149541ZM4.52442 8.40523L12.7917 3.01515C12.809 2.9981 12.8437 2.98104 12.861 2.96398C12.8784 2.96398 12.8784 2.94692 12.8957 2.94692C12.913 2.94692 12.913 2.94692 12.9304 2.92987C12.913 2.94692 12.8957 2.9981 12.861 3.03221L10.7639 4.95968C9.30801 6.27308 7.40151 7.99586 6.13629 9.12164C6.13629 9.12164 6.13629 9.12164 6.13629 9.13869L6.11895 9.15575C6.11895 9.15575 6.11895 9.17281 6.10162 9.17281C6.10162 9.18987 6.10162 9.18987 6.08429 9.20692V9.22398C6.08429 9.22398 6.08429 9.22398 6.08429 9.24104C5.99763 10.1962 5.84164 11.8337 5.77232 12.5672C5.77232 12.5672 5.77232 12.5672 5.77232 12.5501C5.70299 12.3454 4.73241 9.08752 4.52442 8.40523Z" fill="#3D4C99"/>
</svg>
