<svg id="twitter" width="16" height="13" viewBox="0 0 16 13" fill="none" xmlns="http://www.w3.org/2000/svg">
<path d="M16 1.54375C15.5465 2.20729 14.9983 2.77266 14.3553 3.23984C14.3621 3.33463 14.3655 3.47682 14.3655 3.66641C14.3655 4.54662 14.2369 5.42513 13.9797 6.30195C13.7225 7.17877 13.3316 8.02005 12.8071 8.82578C12.2826 9.63151 11.6582 10.3441 10.934 10.9637C10.2098 11.5832 9.33672 12.0775 8.31472 12.4465C7.29272 12.8155 6.19967 13 5.03553 13C3.20135 13 1.52284 12.5091 0 11.5273C0.236883 11.5544 0.500843 11.568 0.791878 11.568C2.31472 11.568 3.67175 11.1008 4.86294 10.1664C4.15228 10.1529 3.51607 9.93451 2.95431 9.51133C2.39256 9.08815 2.00677 8.54818 1.79695 7.89141C2.0203 7.92526 2.22673 7.94219 2.41624 7.94219C2.70728 7.94219 2.99492 7.90494 3.27919 7.83047C2.52115 7.67474 1.8934 7.29727 1.39594 6.69805C0.898477 6.09883 0.649746 5.40312 0.649746 4.61094V4.57031C1.10998 4.8276 1.60406 4.96641 2.13198 4.98672C1.68528 4.68881 1.32995 4.29948 1.06599 3.81875C0.80203 3.33802 0.670051 2.81666 0.670051 2.25469C0.670051 1.65885 0.818954 1.10703 1.11675 0.599219C1.93571 1.60807 2.93231 2.41549 4.1066 3.02148C5.28088 3.62748 6.53807 3.96432 7.87817 4.03203C7.82403 3.77474 7.79695 3.52422 7.79695 3.28047C7.79695 2.37318 8.11675 1.59961 8.75634 0.959766C9.39594 0.319922 10.1692 0 11.0761 0C12.0237 0 12.8223 0.345312 13.4721 1.03594C14.2098 0.89375 14.9036 0.629687 15.5533 0.24375C15.3029 1.0224 14.8223 1.625 14.1117 2.05156C14.7411 1.98385 15.3706 1.81459 16 1.54375Z" fill="#3D4C99"/>
</svg>
