<svg width="18" height="10" viewBox="0 0 18 10" fill="none" xmlns="http://www.w3.org/2000/svg">
<path d="M16.0136 6.92017C14.5016 5.55979 14.6946 5.7668 16.5283 3.43051C17.6221 2.01099 18.0725 1.12379 17.9438 0.739334C17.8795 0.502747 17.0109 0.561894 17.0109 0.561894H14.3086C14.3086 0.561894 13.8904 0.561894 13.7295 0.828054C13.44 1.3308 13.3113 1.95184 12.7323 2.86862C11.5098 4.85003 11.0272 4.96832 10.8342 4.85003C10.3838 4.5543 10.4803 3.69667 10.4803 3.07563C10.4803 1.15336 10.7699 0.35488 9.90128 0.118293C9.70825 0.0591466 9.5474 0.0591463 9.25787 0.0295729C8.904 -4.51694e-07 8.55013 0 8.22843 0C7.42417 0 6.81294 0.029573 6.39472 0.207013C6.07302 0.35488 5.84783 0.680187 6.00868 0.70976C6.2017 0.739334 6.58774 0.828054 6.81293 1.09421C7.10247 1.44909 7.0703 2.27715 7.0703 2.27715C7.0703 2.27715 7.23115 4.5543 6.68425 4.82046C6.33038 5.02747 5.81566 4.61344 4.75404 2.80947C4.20715 1.89269 4.14281 1.27165 3.78894 0.857627C3.56374 0.591467 3.14553 0.502747 3.14553 0.502747H0.571915C0.571915 0.502747 0.121532 0.473174 0.0571915 0.591467C-0.0714894 0.739334 0.0571915 1.03507 0.0571915 1.03507C0.0571915 1.03507 2.08391 5.61894 4.368 7.92566C6.39472 10.1141 8.77532 9.99579 8.77532 9.99579C8.77532 9.99579 10.1586 10.0549 10.3517 9.72963C10.4803 9.61134 10.5125 9.25646 10.5125 9.25646C10.5125 9.25646 10.4803 7.83694 11.1559 7.62993C11.8315 7.42291 12.6679 8.9903 13.5687 9.58177C14.2443 10.0549 14.4373 9.99579 14.759 9.99579C15.4024 9.99579 17.1717 9.99579 17.1717 9.99579C17.1717 9.99579 18.4264 9.8775 17.8473 8.90158C17.7508 8.84243 17.4613 8.22139 16.0136 6.92017Z" fill="#293D66"/>
</svg>
