<svg width="16" height="12" viewBox="0 0 16 12" fill="none" xmlns="http://www.w3.org/2000/svg">
<path d="M11.4286 6C11.4286 5.76875 11.3393 5.6 11.1607 5.49375L6.58929 2.49375C6.40476 2.36875 6.21131 2.3625 6.00893 2.475C5.8125 2.5875 5.71429 2.7625 5.71429 3V9C5.71429 9.2375 5.8125 9.4125 6.00893 9.525C6.10417 9.575 6.19643 9.6 6.28571 9.6C6.40476 9.6 6.50595 9.56875 6.58929 9.50625L11.1607 6.50625C11.3393 6.4 11.4286 6.23125 11.4286 6ZM16 6C16 6.6 15.997 7.06875 15.9911 7.40625C15.9851 7.74375 15.9598 8.17031 15.9152 8.68594C15.8705 9.20156 15.8036 9.6625 15.7143 10.0688C15.619 10.525 15.4137 10.9094 15.0982 11.2219C14.7827 11.5344 14.4137 11.7156 13.9911 11.7656C12.6696 11.9219 10.6726 12 8 12C5.32738 12 3.33036 11.9219 2.00893 11.7656C1.58631 11.7156 1.21577 11.5344 0.897321 11.2219C0.578869 10.9094 0.372024 10.525 0.276786 10.0688C0.193452 9.6625 0.129464 9.20156 0.0848214 8.68594C0.0401786 8.17031 0.014881 7.74375 0.00892857 7.40625C0.00297619 7.06875 0 6.6 0 6C0 5.4 0.00297619 4.93125 0.00892857 4.59375C0.014881 4.25625 0.0401786 3.82969 0.0848214 3.31406C0.129464 2.79844 0.196429 2.3375 0.285714 1.93125C0.380952 1.475 0.58631 1.09063 0.901786 0.778125C1.21726 0.465625 1.58631 0.284375 2.00893 0.234375C3.33036 0.078125 5.32738 0 8 0C10.6726 0 12.6696 0.078125 13.9911 0.234375C14.4137 0.284375 14.7842 0.465625 15.1027 0.778125C15.4211 1.09063 15.628 1.475 15.7232 1.93125C15.8065 2.3375 15.8705 2.79844 15.9152 3.31406C15.9598 3.82969 15.9851 4.25625 15.9911 4.59375C15.997 4.93125 16 5.4 16 6Z" fill="#293D66"/>
</svg>
